<svg width="72" height="18" viewBox="0 0 72 18" fill="none" xmlns="http://www.w3.org/2000/svg">
<path d="M5.072 7.808V7.608H4.872V7.808H5.072ZM5.768 7.808H5.968V7.608H5.768V7.808ZM5.768 8.856V9.056H5.968V8.856H5.768ZM5.072 8.856H4.872V9.056H5.072V8.856ZM3.32 6.4V6.2H3.12V6.4H3.32ZM3.32 12H3.12V12.2H3.32V12ZM5.072 12V12.2H5.272V12H5.072ZM5.072 10.256V10.056H4.872V10.256H5.072ZM5.072 8.008H5.768V7.608H5.072V8.008ZM5.568 7.808V8.856H5.968V7.808H5.568ZM5.768 8.656H5.072V9.056H5.768V8.656ZM5.272 8.856V7.808H4.872V8.856H5.272ZM6.816 10.456C7.07292 10.456 7.30145 10.3637 7.46599 10.1979C7.63029 10.0322 7.72 9.80413 7.72 9.552H7.32C7.32 9.70787 7.26571 9.83177 7.18201 9.91615C7.09855 10.0003 6.97508 10.056 6.816 10.056V10.456ZM7.72 9.552V7.096H7.32V9.552H7.72ZM7.72 7.096C7.72 6.84362 7.63008 6.6169 7.46485 6.45301C7.29968 6.28917 7.0713 6.2 6.816 6.2V6.6C6.9767 6.6 7.10032 6.65483 7.18315 6.73699C7.26592 6.8191 7.32 6.94038 7.32 7.096H7.72ZM6.816 6.2H3.32V6.6H6.816V6.2ZM3.12 6.4V12H3.52V6.4H3.12ZM3.32 12.2H5.072V11.8H3.32V12.2ZM5.272 12V10.256H4.872V12H5.272ZM5.072 10.456H6.816V10.056H5.072V10.456ZM10.5258 7.808H10.7258V7.608H10.5258V7.808ZM10.5258 8.856V9.056H10.7258V8.856H10.5258ZM9.82981 8.856H9.62981V9.056H9.82981V8.856ZM9.82981 7.808V7.608H9.62981V7.808H9.82981ZM8.07781 6.4V6.2H7.87781V6.4H8.07781ZM8.07781 12H7.87781V12.2H8.07781V12ZM9.82981 12V12.2H10.0298V12H9.82981ZM9.82981 10.256V10.056H9.62981V10.256H9.82981ZM10.1818 10.256L10.3749 10.2038L10.3349 10.056H10.1818V10.256ZM10.6538 12L10.4608 12.0522L10.5007 12.2H10.6538V12ZM12.3658 12V12.2H12.5658V12H12.3658ZM12.3658 11.304H12.5658V11.2654L12.5514 11.2295L12.3658 11.304ZM11.8138 9.928L11.7612 9.73505L11.5446 9.79411L11.6282 10.0025L11.8138 9.928ZM10.3258 7.808V8.856H10.7258V7.808H10.3258ZM10.5258 8.656H9.82981V9.056H10.5258V8.656ZM10.0298 8.856V7.808H9.62981V8.856H10.0298ZM9.82981 8.008H10.5258V7.608H9.82981V8.008ZM7.87781 6.4V12H8.27781V6.4H7.87781ZM8.07781 12.2H9.82981V11.8H8.07781V12.2ZM10.0298 12V10.256H9.62981V12H10.0298ZM9.82981 10.456H10.1818V10.056H9.82981V10.456ZM9.98876 10.3082L10.4608 12.0522L10.8469 11.9478L10.3749 10.2038L9.98876 10.3082ZM10.6538 12.2H12.3658V11.8H10.6538V12.2ZM12.5658 12V11.304H12.1658V12H12.5658ZM12.5514 11.2295L11.9994 9.85354L11.6282 10.0025L12.1802 11.3785L12.5514 11.2295ZM11.8664 10.121C12.0523 10.0703 12.204 9.94495 12.3075 9.80038C12.4109 9.65589 12.4778 9.47598 12.4778 9.296H12.0778C12.0778 9.38002 12.0448 9.48011 11.9822 9.56762C11.9196 9.65505 11.8393 9.71374 11.7612 9.73505L11.8664 10.121ZM12.4778 9.296V7.096H12.0778V9.296H12.4778ZM12.4778 7.096C12.4778 6.84367 12.3879 6.61729 12.2242 6.45358C12.0605 6.28986 11.8341 6.2 11.5818 6.2V6.6C11.7375 6.6 11.8591 6.65414 11.9414 6.73642C12.0237 6.81871 12.0778 6.94033 12.0778 7.096H12.4778ZM11.5818 6.2H8.07781V6.6H11.5818V6.2ZM15.2914 7.808H15.4914V7.608H15.2914V7.808ZM15.2914 10.6V10.8H15.4914V10.6H15.2914ZM14.5954 10.6H14.3954V10.8H14.5954V10.6ZM14.5954 7.808V7.608H14.3954V7.808H14.5954ZM15.0914 7.808V10.6H15.4914V7.808H15.0914ZM15.2914 10.4H14.5954V10.8H15.2914V10.4ZM14.7954 10.6V7.808H14.3954V10.6H14.7954ZM14.5954 8.008H15.2914V7.608H14.5954V8.008ZM16.3394 12.2C16.5947 12.2 16.8231 12.1108 16.9883 11.947C17.1535 11.7831 17.2434 11.5564 17.2434 11.304H16.8434C16.8434 11.4596 16.7894 11.5809 16.7066 11.663C16.6238 11.7452 16.5001 11.8 16.3394 11.8V12.2ZM17.2434 11.304V7.096H16.8434V11.304H17.2434ZM17.2434 7.096C17.2434 6.84362 17.1535 6.6169 16.9883 6.45301C16.8231 6.28917 16.5947 6.2 16.3394 6.2V6.6C16.5001 6.6 16.6238 6.65483 16.7066 6.73699C16.7894 6.8191 16.8434 6.94038 16.8434 7.096H17.2434ZM16.3394 6.2H13.5474V6.6H16.3394V6.2ZM13.5474 6.2C13.2921 6.2 13.0638 6.28917 12.8986 6.45301C12.7334 6.6169 12.6434 6.84362 12.6434 7.096H13.0434C13.0434 6.94038 13.0975 6.8191 13.1803 6.73699C13.2631 6.65483 13.3867 6.6 13.5474 6.6V6.2ZM12.6434 7.096V11.304H13.0434V7.096H12.6434ZM12.6434 11.304C12.6434 11.5564 12.7334 11.7831 12.8986 11.947C13.0638 12.1108 13.2921 12.2 13.5474 12.2V11.8C13.3867 11.8 13.2631 11.7452 13.1803 11.663C13.0975 11.5809 13.0434 11.4596 13.0434 11.304H12.6434ZM13.5474 12.2H16.3394V11.8H13.5474V12.2ZM17.9992 9.224L17.8859 9.38883L17.8887 9.39068L17.9992 9.224ZM19.5192 10.232H19.7192V10.1246L19.6297 10.0653L19.5192 10.232ZM19.5192 10.6V10.8H19.7192V10.6H19.5192ZM17.5272 10.6V10.4H17.3272V10.6H17.5272ZM17.5272 12H17.3272V12.2H17.5272V12ZM20.7992 9.08L20.688 9.24628L20.6882 9.24641L20.7992 9.08ZM19.2792 8.064H19.0792V8.17088L19.168 8.23028L19.2792 8.064ZM19.2792 7.808V7.608H19.0792V7.808H19.2792ZM20.9992 7.808V8.008H21.1374L21.1863 7.87868L20.9992 7.808ZM21.2712 7.088L21.4583 7.15868L21.4712 7.12452V7.088H21.2712ZM21.2712 6.4H21.4712V6.2H21.2712V6.4ZM17.8887 9.39068L19.4087 10.3987L19.6297 10.0653L18.1097 9.05732L17.8887 9.39068ZM19.3192 10.232V10.6H19.7192V10.232H19.3192ZM19.5192 10.4H17.5272V10.8H19.5192V10.4ZM17.3272 10.6V12H17.7272V10.6H17.3272ZM17.5272 12.2H20.5752V11.8H17.5272V12.2ZM20.5752 12.2C20.8275 12.2 21.0539 12.1101 21.2176 11.9464C21.3813 11.7827 21.4712 11.5563 21.4712 11.304H21.0712C21.0712 11.4597 21.0171 11.5813 20.9348 11.6636C20.8525 11.7459 20.7309 11.8 20.5752 11.8V12.2ZM21.4712 11.304V10.032H21.0712V11.304H21.4712ZM21.4712 10.032C21.4712 9.79796 21.4489 9.58905 21.3604 9.39942C21.2701 9.20593 21.1215 9.05452 20.9101 8.91359L20.6882 9.24641C20.8608 9.36148 20.9482 9.46207 20.998 9.56858C21.0495 9.67895 21.0712 9.81803 21.0712 10.032H21.4712ZM20.9103 8.91372L19.3903 7.89772L19.168 8.23028L20.688 9.24628L20.9103 8.91372ZM19.4792 8.064V7.808H19.0792V8.064H19.4792ZM19.2792 8.008H20.9992V7.608H19.2792V8.008ZM21.1863 7.87868L21.4583 7.15868L21.0841 7.01732L20.8121 7.73732L21.1863 7.87868ZM21.4712 7.088V6.4H21.0712V7.088H21.4712ZM21.2712 6.2H18.2312V6.6H21.2712V6.2ZM18.2312 6.2C17.9759 6.2 17.7475 6.28917 17.5823 6.45301C17.4171 6.6169 17.3272 6.84362 17.3272 7.096H17.7272C17.7272 6.94038 17.7813 6.8191 17.864 6.73699C17.9469 6.65483 18.0705 6.6 18.2312 6.6V6.2ZM17.3272 7.096V8.272H17.7272V7.096H17.3272ZM17.3272 8.272C17.3272 8.50614 17.3495 8.71325 17.4382 8.90204C17.5284 9.09402 17.6764 9.2448 17.8859 9.38881L18.1125 9.05919C17.938 8.9392 17.85 8.83798 17.8002 8.73196C17.7489 8.62275 17.7272 8.48586 17.7272 8.272H17.3272ZM22.5577 7.808H22.7577V7.608H22.5577V7.808ZM22.5577 12H22.3577V12.2H22.5577V12ZM24.3097 12V12.2H24.5097V12H24.3097ZM24.3097 7.808V7.608H24.1097V7.808H24.3097ZM25.1497 7.808V8.008H25.2859L25.3358 7.88119L25.1497 7.808ZM25.4297 7.096L25.6158 7.16919L25.6297 7.13391V7.096H25.4297ZM25.4297 6.4H25.6297V6.2H25.4297V6.4ZM21.5097 6.4V6.2H21.3097V6.4H21.5097ZM21.5097 7.808H21.3097V8.008H21.5097V7.808ZM22.3577 7.808V12H22.7577V7.808H22.3577ZM22.5577 12.2H24.3097V11.8H22.5577V12.2ZM24.5097 12V7.808H24.1097V12H24.5097ZM24.3097 8.008H25.1497V7.608H24.3097V8.008ZM25.3358 7.88119L25.6158 7.16919L25.2436 7.0228L24.9636 7.7348L25.3358 7.88119ZM25.6297 7.096V6.4H25.2297V7.096H25.6297ZM25.4297 6.2H21.5097V6.6H25.4297V6.2ZM21.3097 6.4V7.808H21.7097V6.4H21.3097ZM21.5097 8.008H22.5577V7.608H21.5097V8.008ZM28.2758 7.808H28.4758V7.608H28.2758V7.808ZM28.2758 10.6V10.8H28.4758V10.6H28.2758ZM27.5798 10.6H27.3798V10.8H27.5798V10.6ZM27.5798 7.808V7.608H27.3798V7.808H27.5798ZM28.0758 7.808V10.6H28.4758V7.808H28.0758ZM28.2758 10.4H27.5798V10.8H28.2758V10.4ZM27.7798 10.6V7.808H27.3798V10.6H27.7798ZM27.5798 8.008H28.2758V7.608H27.5798V8.008ZM29.3238 12.2C29.5791 12.2 29.8075 12.1108 29.9727 11.947C30.1379 11.7831 30.2278 11.5564 30.2278 11.304H29.8278C29.8278 11.4596 29.7737 11.5809 29.691 11.663C29.6081 11.7452 29.4845 11.8 29.3238 11.8V12.2ZM30.2278 11.304V7.096H29.8278V11.304H30.2278ZM30.2278 7.096C30.2278 6.84362 30.1379 6.6169 29.9727 6.45301C29.8075 6.28917 29.5791 6.2 29.3238 6.2V6.6C29.4845 6.6 29.6081 6.65483 29.691 6.73699C29.7737 6.8191 29.8278 6.94038 29.8278 7.096H30.2278ZM29.3238 6.2H26.5318V6.6H29.3238V6.2ZM26.5318 6.2C26.2765 6.2 26.0481 6.28917 25.883 6.45301C25.7177 6.6169 25.6278 6.84362 25.6278 7.096H26.0278C26.0278 6.94038 26.0819 6.8191 26.1647 6.73699C26.2475 6.65483 26.3711 6.6 26.5318 6.6V6.2ZM25.6278 7.096V11.304H26.0278V7.096H25.6278ZM25.6278 11.304C25.6278 11.5564 25.7177 11.7831 25.883 11.947C26.0481 12.1108 26.2765 12.2 26.5318 12.2V11.8C26.3711 11.8 26.2475 11.7452 26.1647 11.663C26.0819 11.5809 26.0278 11.4596 26.0278 11.304H25.6278ZM26.5318 12.2H29.3238V11.8H26.5318V12.2Z" fill="#3F3F3F"/>
<path d="M48.41 7.26H48.61V7.06H48.41V7.26ZM48.41 12.5H48.21V12.7H48.41V12.5ZM50.6 12.5V12.7H50.8V12.5H50.6ZM50.6 7.26V7.06H50.4V7.26H50.6ZM51.65 7.26V7.46H51.7863L51.8361 7.33319L51.65 7.26ZM52 6.37L52.1861 6.44319L52.2 6.40791V6.37H52ZM52 5.5H52.2V5.3H52V5.5ZM47.1 5.5V5.3H46.9V5.5H47.1ZM47.1 7.26H46.9V7.46H47.1V7.26ZM48.21 7.26V12.5H48.61V7.26H48.21ZM48.41 12.7H50.6V12.3H48.41V12.7ZM50.8 12.5V7.26H50.4V12.5H50.8ZM50.6 7.46H51.65V7.06H50.6V7.46ZM51.8361 7.33319L52.1861 6.44319L51.8139 6.2968L51.4639 7.1868L51.8361 7.33319ZM52.2 6.37V5.5H51.8V6.37H52.2ZM52 5.3H47.1V5.7H52V5.3ZM46.9 5.5V7.26H47.3V5.5H46.9ZM47.1 7.46H48.41V7.06H47.1V7.46ZM55.5577 7.26H55.7577V7.06H55.5577V7.26ZM55.5577 8.57V8.77H55.7577V8.57H55.5577ZM54.6877 8.57H54.4877V8.77H54.6877V8.57ZM54.6877 7.26V7.06H54.4877V7.26H54.6877ZM52.4977 5.5V5.3H52.2977V5.5H52.4977ZM52.4977 12.5H52.2977V12.7H52.4977V12.5ZM54.6877 12.5V12.7H54.8877V12.5H54.6877ZM54.6877 10.32V10.12H54.4877V10.32H54.6877ZM55.1277 10.32L55.3207 10.2678L55.2807 10.12H55.1277V10.32ZM55.7177 12.5L55.5246 12.5522L55.5646 12.7H55.7177V12.5ZM57.8577 12.5V12.7H58.0577V12.5H57.8577ZM57.8577 11.63H58.0577V11.5914L58.0433 11.5555L57.8577 11.63ZM57.1677 9.91L57.115 9.71705L56.8985 9.77611L56.982 9.98446L57.1677 9.91ZM55.3577 7.26V8.57H55.7577V7.26H55.3577ZM55.5577 8.37H54.6877V8.77H55.5577V8.37ZM54.8877 8.57V7.26H54.4877V8.57H54.8877ZM54.6877 7.46H55.5577V7.06H54.6877V7.46ZM52.2977 5.5V12.5H52.6977V5.5H52.2977ZM52.4977 12.7H54.6877V12.3H52.4977V12.7ZM54.8877 12.5V10.32H54.4877V12.5H54.8877ZM54.6877 10.52H55.1277V10.12H54.6877V10.52ZM54.9346 10.3722L55.5246 12.5522L55.9107 12.4478L55.3207 10.2678L54.9346 10.3722ZM55.7177 12.7H57.8577V12.3H55.7177V12.7ZM58.0577 12.5V11.63H57.6577V12.5H58.0577ZM58.0433 11.5555L57.3533 9.83554L56.982 9.98446L57.672 11.7045L58.0433 11.5555ZM57.2203 10.103C57.4391 10.0433 57.6199 9.89495 57.7441 9.72138C57.8682 9.54789 57.9477 9.33298 57.9477 9.12H57.5477C57.5477 9.23702 57.5021 9.37211 57.4188 9.48862C57.3354 9.60505 57.2262 9.68674 57.115 9.71705L57.2203 10.103ZM57.9477 9.12V6.37H57.5477V9.12H57.9477ZM57.9477 6.37C57.9477 6.06667 57.8398 5.79679 57.6453 5.60233C57.4509 5.40786 57.181 5.3 56.8777 5.3V5.7C57.0843 5.7 57.2495 5.77214 57.3625 5.88517C57.4755 5.99821 57.5477 6.16333 57.5477 6.37H57.9477ZM56.8777 5.3H52.4977V5.7H56.8777V5.3ZM63.1347 12.5V12.7H63.3347V12.5H63.1347ZM63.1347 10.75H63.3347V10.55H63.1347V10.75ZM60.6347 10.75H60.4347V10.95H60.6347V10.75ZM60.6347 9.79V9.59H60.4347V9.79H60.6347ZM62.7847 9.79V9.99H62.9847V9.79H62.7847ZM62.7847 8.04H62.9847V7.84H62.7847V8.04ZM60.6347 8.04H60.4347V8.24H60.6347V8.04ZM60.6347 7.26V7.06H60.4347V7.26H60.6347ZM62.7847 7.26V7.46H62.9209L62.9708 7.33319L62.7847 7.26ZM63.1347 6.37L63.3208 6.44319L63.3347 6.40791V6.37H63.1347ZM63.1347 5.5H63.3347V5.3H63.1347V5.5ZM58.4547 5.5V5.3H58.2547V5.5H58.4547ZM58.4547 12.5H58.2547V12.7H58.4547V12.5ZM63.3347 12.5V10.75H62.9347V12.5H63.3347ZM63.1347 10.55H60.6347V10.95H63.1347V10.55ZM60.8347 10.75V9.79H60.4347V10.75H60.8347ZM60.6347 9.99H62.7847V9.59H60.6347V9.99ZM62.9847 9.79V8.04H62.5847V9.79H62.9847ZM62.7847 7.84H60.6347V8.24H62.7847V7.84ZM60.8347 8.04V7.26H60.4347V8.04H60.8347ZM60.6347 7.46H62.7847V7.06H60.6347V7.46ZM62.9708 7.33319L63.3208 6.44319L62.9486 6.2968L62.5986 7.1868L62.9708 7.33319ZM63.3347 6.37V5.5H62.9347V6.37H63.3347ZM63.1347 5.3H58.4547V5.7H63.1347V5.3ZM58.2547 5.5V12.5H58.6547V5.5H58.2547ZM58.4547 12.7H63.1347V12.3H58.4547V12.7ZM68.4179 12.5V12.7H68.6179V12.5H68.4179ZM68.4179 10.75H68.6179V10.55H68.4179V10.75ZM65.9179 10.75H65.7179V10.95H65.9179V10.75ZM65.9179 9.79V9.59H65.7179V9.79H65.9179ZM68.0679 9.79V9.99H68.2679V9.79H68.0679ZM68.0679 8.04H68.2679V7.84H68.0679V8.04ZM65.9179 8.04H65.7179V8.24H65.9179V8.04ZM65.9179 7.26V7.06H65.7179V7.26H65.9179ZM68.0679 7.26V7.46H68.2041L68.254 7.33319L68.0679 7.26ZM68.4179 6.37L68.604 6.44319L68.6179 6.40791V6.37H68.4179ZM68.4179 5.5H68.6179V5.3H68.4179V5.5ZM63.7379 5.5V5.3H63.5379V5.5H63.7379ZM63.7379 12.5H63.5379V12.7H63.7379V12.5ZM68.6179 12.5V10.75H68.2179V12.5H68.6179ZM68.4179 10.55H65.9179V10.95H68.4179V10.55ZM66.1179 10.75V9.79H65.7179V10.75H66.1179ZM65.9179 9.99H68.0679V9.59H65.9179V9.99ZM68.2679 9.79V8.04H67.8679V9.79H68.2679ZM68.0679 7.84H65.9179V8.24H68.0679V7.84ZM66.1179 8.04V7.26H65.7179V8.04H66.1179ZM65.9179 7.46H68.0679V7.06H65.9179V7.46ZM68.254 7.33319L68.604 6.44319L68.2318 6.2968L67.8818 7.1868L68.254 7.33319ZM68.6179 6.37V5.5H68.2179V6.37H68.6179ZM68.4179 5.3H63.7379V5.7H68.4179V5.3ZM63.5379 5.5V12.5H63.9379V5.5H63.5379ZM63.7379 12.7H68.4179V12.3H63.7379V12.7Z" fill="#3F3F3F"/>
<path d="M32.4 6L34.4 7.33333L36.4 8.66667L38.4 10M32.4 6V7V8V12L34.4 13.3333M32.4 6L34.4 4.66667L36.4 6M44.4 6V7V8V12L42.4 13.3333M44.4 6L42.4 7.33333L40.4 8.66667L38.4 10M44.4 6L42.4 4.66667L40.4 3.33333L38.4 2L36.4 3.33333M38.4 16L36.4 14.6667V12.0667M38.4 16V12V10M38.4 16L40.4 14.6667V12.0667M34.4 13.3333L36.4 12.0667M34.4 13.3333V9.33333L36.4 10.6667V12.0667M42.4 13.3333L40.4 12.0667M42.4 13.3333V9.33333L40.4 10.6667V12.0667M36.4 3.33333L38.4 4.66667L40.4 6L38.9 7M36.4 3.33333V6M38.4 7.33333L38.9 7M38.4 7.33333L37.9 7L36.4 6M38.4 7.33333L38.4 6.66667L38.9 7" stroke="#3F3F3F" stroke-width="0.2"/>
</svg>
